<svg xmlns="http://www.w3.org/2000/svg" width="48" height="48"><path fill="#ed2224" d="m13.005 10.875.055-4.419c.005-.375.013-.764.199-1.1.197-.356.564-.599.964-.786 1.912-.893 4.077-1.259 6.232-1.239 4.066.037 8.129.179 12.191.321.726.025 1.476.056 2.132.335 1.584.675 2.042 2.484 2.155 4.055.505 7.022-2.049 17.061-1.083 24.044.18 1.304.482 2.593.621 3.9.301 2.847-.179 5.709-.658 8.536l-6.138-6.905c-.897-1.009-1.872-2.059-2.995-2.858-1.487-1.059-3.658-.769-4.755.621a459.288 459.288 0 0 1-7.523 9.272c-.67-10.497-1.377-23.262-1.397-33.777z"/><path fill="#f3ad20" d="M16.39 22.39c.6 6.19.93 12.42.98 18.65-.98 1.21-1.97 2.41-2.97 3.61-.67-10.5-1.37-23.26-1.4-33.78l.06-4.41c0-.38.01-.77.2-1.1.2-.36.56-.6.96-.79.68-.32 1.4-.57 2.13-.76-.09 3.3-.19 6.59-.29 9.89-.04 1.38-.08 2.77-.03 4.15.05 1.52.22 3.03.36 4.54zM36.47 35.99c.3 2.84-.18 5.71-.66 8.53-.98-1.1-1.96-2.21-2.94-3.31-.26-4.02-.45-8.05-.24-12.07.07-1.34.18-2.67.18-4.02-.01-2.14-.33-4.29-.19-6.43.11-1.59.47-3.14.62-4.73.12-1.24.1-2.51.09-3.76-.03-2.17-.05-4.35-.08-6.52.53.04 1.05.11 1.53.31 1.58.67 2.04 2.48 2.15 4.05.51 7.02-2.05 17.06-1.08 24.05.18 1.3.48 2.59.62 3.9z"/><path fill="#010101" d="M36.617 33.66a40.168 40.168 0 0 1-.272-1.643c-.512-3.699-.009-8.36.477-12.868.416-3.862.847-7.857.61-11.144a8.672 8.672 0 0 0-.293-1.741c-.285-1.018-.764-1.782-1.429-2.294a3.4 3.4 0 0 0-.736-.444c-.033-.014-.067-.02-.1-.033a4.11 4.11 0 0 0-.845-.225 6.559 6.559 0 0 0-.584-.073l-.156-.015h-.003a20.001 20.001 0 0 0-.622-.03l-.112-.004c-3.962-.136-8.058-.279-12.093-.316a15.748 15.748 0 0 0-4.147.494c-.03.002-.059-.005-.088.002-.151.039-.29.091-.437.134-.162.048-.325.095-.483.148-.452.152-.891.318-1.298.509a4.49 4.49 0 0 0-.345.185c-.052.031-.099.064-.148.097a2.165 2.165 0 0 0-.37.303c-.025.025-.051.048-.075.074a1.852 1.852 0 0 0-.247.335 1.848 1.848 0 0 0-.147.35c-.113.361-.115.723-.115.983V6.484l-.059 4.387c.032 11.12.815 24.622 1.401 33.812l.001.003a.499.499 0 0 0 .883.287 459.731 459.731 0 0 0 7.532-9.283c.938-1.187 2.805-1.427 4.072-.523 1.1.782 2.079 1.847 2.911 2.783l5.895 6.631.241.271h.001l.001.002.006.003c.055.06.124.1.199.126.031.012.06.015.093.02.025.004.048.016.074.016a.507.507 0 0 0 .116-.016c.008-.002.016.002.024 0a.499.499 0 0 0 .355-.396c.478-2.82.973-5.735.662-8.673-.08-.768-.218-1.534-.35-2.274zM13.505 10.874H13.5l.001-.047h.005l.054-4.363a2.44 2.44 0 0 1 .092-.71c.017-.049.021-.106.045-.15.098-.177.298-.332.572-.483.059-.032.098-.066.166-.098.105-.049.223-.083.331-.129.333-.143.668-.285 1.033-.401l.03-.008c-.091 3-.225 5.998-.263 8.995l-.006.206c-.039 1.36-.08 2.767-.029 4.181.041 1.232.16 2.47.275 3.666l.063.666c.584 6.211.927 12.431.997 18.669-.677.835-1.358 1.665-2.045 2.495-.578-9.185-1.296-22.022-1.316-32.489zm16.544 26.412c-.869-.978-1.895-2.091-3.079-2.934a4 4 0 0 0-2.324-.726c-1.188 0-2.367.5-3.113 1.444a458.573 458.573 0 0 1-3.688 4.603c-.005-.352-.019-.706-.026-1.058-.02-.916-.036-1.832-.068-2.747a210.227 210.227 0 0 0-.863-13.525l-.048-.505c-.259-2.771-.309-5.544-.274-8.318.094-3.101.187-6.195.273-9.296a15.637 15.637 0 0 1 3.611-.395c4.023.037 8.112.18 12.067.317l.111.004.128.005.076 6.311c.005.56.009 1.129 0 1.698l-.002.067c-.01.565-.034 1.129-.088 1.681-.067.717-.179 1.426-.29 2.134-.132.848-.27 1.725-.331 2.611-.085 1.31-.003 2.629.077 3.905l.021.361c.042.77.07 1.539.088 2.309a51.153 51.153 0 0 1-.114 2.816l-.062 1.063c-.188 3.59-.049 7.224.156 10.691l-2.238-2.516zm5.441 6.121-2.129-2.398c-.315-5.27.062-10.527-.054-15.776 0-.039.003-.077.003-.115a39.19 39.19 0 0 0-.094-2.283v-.011c-.167-2.954.253-5.716.499-8.614.007-.068.018-.135.024-.203.008-.085.006-.171.013-.256.007-.087.015-.172.021-.259.017-.235.017-.472.029-.707.009-.236.026-.47.029-.706.094-2.606-.021-5.24-.069-7.843.279.041.563.105.823.213.135.057.263.127.384.207.608.408 1.032 1.11 1.269 2.097.094.395.158.836.192 1.322.232 3.196-.174 6.971-.604 10.967-.493 4.568-1.002 9.292-.472 13.115.077.559.177 1.115.276 1.672.129.727.264 1.477.342 2.213.259 2.458-.079 4.941-.482 7.365z"/></svg>