<svg xmlns="http://www.w3.org/2000/svg" viewBox="0 0 512 512" width="48" height="48"><path fill="#EF4823" d="M388.9 372.5c-.8-.3-1.6-.7-2.3-1.3-11.7-9.4-20.2-22.2-28.8-34.3-8.9-12.6-19.1-24.1-28.8-36.1-5.2-6.4-10.2-12.9-15.2-19.5-3.2-5.8-6.6-11.5-10.1-17.2 2-3.4 3.9-6.8 5.7-10.3 0 .1.1.1.1.2 9.9-13.7 20-27.3 30.6-40.5 18.8-23.5 38.1-46.5 56.5-70.2-18.8-24.5-36.7-49.6-51.9-76.4-4.3 8.9-8.1 18-11.7 27.2-6.2 15.8-12.8 31.4-20.5 46.6-10.9 21.6-22.6 43-35.1 63.8l.4.7-2.7 3.6c-1.9 2-3.8 3.9-5.6 5.8-2.6-4-5.2-8.1-7.9-12.1-.4-.6-.7-1.1-1.1-1.7-16-26.8-31.3-54.1-45.7-81.8-5.5-10.6-11.8-20.8-17.7-31.3-4.9-8.7-10.7-18.1-13.1-27.9-20 10.8-39.7 23-55.5 39.4 3 1.6 5.8 3.5 8.4 5.7 9.8 8.2 17.5 18.7 25.3 28.8 8.7 11.3 17.9 22.1 26.7 33.2 18.1 23 35.3 46.6 53.2 69.8.1-.1.2-.3.3-.4 2.4 3.6 4.8 7.2 7.6 10.4-.7 1.3-1.4 2.7-2.1 4-1.7 2.5-3.3 5-4.9 7.5-.1-.1-.2-.2-.3-.4-14.6 20.6-30.2 40.4-47 59.2-17.1 19.3-35.4 41.5-58.2 54.7.6 1.3.7 2.8.3 4.1 9 9.2 21.1 15.2 29.6 25 7.9 9 14.9 18.8 23 27.6 8.3-22.3 21.9-42.6 36-61.7 14.1-19.1 28.7-37.9 42.8-57 2.5-2.9 4.8-6 7.1-9.1 2.6-2.9 5.3-5.7 7.6-8.7 4.1 4.4 7.9 9 12.4 13 9.7 12.6 19 25.4 27.6 38.7 17.8 27.6 30.2 58 46.3 86.6 9.5-16.3 20.3-32.5 25.4-50.6-1.8-1.2-3.5-2.8-5.4-4.6-.5-.8-1-1.6-1.3-2.5z"/><path d="M389.5 356.8h-.1c-8-7.9-14.4-17.3-20.9-26.5-8.9-12.7-19-24.1-28.8-36.1-7.8-9.6-15.3-19.4-22.5-29.4 10.4-14.4 20.9-28.8 32-42.7 19.9-24.9 40.4-49.3 59.9-74.5 1.6-2.1 2.6-5.3.8-7.6-21.2-27.5-41.5-55.8-58.1-86.3.1-.2.2-.4.3-.5-1.6-2.7-3-5.6-4.3-8.5-.7-1.2-1.3-2.3-2-3.5-.1.1-.3.1-.4.2-1.5.8-2.8 1.6-4.1 2.4-.3.1-.5.2-.8.3-1.2 4.2-2.9 8.4-5.1 12.1.1.2.2.3.3.5-12.4 23.8-20.3 50-32.2 74.1-10.3 20.8-21.5 41.3-33.4 61.4-14.8-24.9-28.9-50.1-42.3-75.7-2.8-5.4-5.8-10.7-8.8-16.1-4.9-6.8-9.2-14-12.4-21.7-2.8-4.8-5.6-9.8-7.8-14.9-3.7-6.3-6.8-12.8-10-19.3-1.2-.1-2.4.1-3.7.7-24 12.5-47.8 26.7-66.5 46.5-1.2 1.3-1.7 2.8-1.7 4.2 4.9 6.6 9.6 13.4 14.1 20.2 5.7 5 10.5 11.2 15 16.9 8 10.1 16.3 20.1 24.2 30.2 11.3 14.4 22.7 28.8 33.9 43.3 10.4 13.6 20.3 27.6 30.8 41.1-14 20-29.2 39.3-45.3 57.7-9.7 11.1-19.8 22.1-30.2 32.6-8.9 9-18.5 17.5-29.5 23.8-.2.1-.5.2-.7.3l-6.1 3.2c-4.1 2.1-3.8 6.3-1.4 9 .1 1 .4 2 .9 2.8 8.9 12.7 22.7 20 33.8 30.4 12 11.4 20.4 26.1 32.7 37.4 3.6 3.3 9.1 1.5 10.4-3.1 7.3-25.4 22.8-48.2 38.5-69.2 15.5-20.8 31.3-41.4 46.7-62.3 7.4 9.5 14.5 19.2 21.4 29.1 10.5 15.2 20 31.1 28.3 47.6 8.2 16.1 15.7 32.6 24.5 48.4 2 3.7 4.2 7.4 6.4 11 2.4 4 8.7 3.9 10.9-.3 11.7-22.1 27.7-43.3 33.2-68.1-2.8-2.4-5.4-4.8-7.8-7.2-4.1-4-8.8-8.7-12.1-13.9zm-19 73.4c-16.1-28.5-28.5-59-46.3-86.6-8.6-13.3-17.9-26.1-27.6-38.7-4.5-4-8.3-8.6-12.4-13-2.4 3-5 5.9-7.6 8.7-2.2 3.1-4.6 6.2-7.1 9.1-14.2 19.1-28.7 37.8-42.8 57-14.1 19-27.7 39.3-36 61.7-8.1-8.8-15.2-18.6-23-27.6-8.5-9.8-20.6-15.8-29.6-25 .5-1.3.3-2.8-.3-4.1 22.9-13.1 41.1-35.4 58.2-54.7 16.7-18.8 32.4-38.6 47-59.2.1.1.2.2.3.4 1.6-2.5 3.2-5 4.9-7.5.7-1.3 1.4-2.7 2.1-4-2.8-3.2-5.2-6.8-7.6-10.4-.1.1-.2.3-.3.4-17.9-23.1-35.1-46.8-53.2-69.8-8.8-11.2-18-22-26.7-33.2-7.8-10.1-15.5-20.5-25.3-28.8-2.6-2.2-5.4-4.1-8.4-5.7 15.8-16.4 35.5-28.6 55.5-39.4 2.4 9.8 8.2 19.2 13.1 27.9 5.9 10.4 12.1 20.7 17.7 31.3 14.4 27.7 29.7 55 45.7 81.8.4.6.8 1.1 1.1 1.7 2.7 4 5.3 8 7.9 12.1 1.8-2 3.7-3.9 5.6-5.8l2.7-3.6-.4-.7c12.5-20.9 24.2-42.2 35.1-63.8 7.7-15.2 14.2-30.8 20.5-46.6 3.6-9.2 7.4-18.3 11.7-27.2 15.2 26.8 33.2 51.9 51.9 76.4-18.5 23.7-37.7 46.8-56.5 70.2-10.6 13.3-20.7 26.8-30.6 40.5 0-.1-.1-.1-.1-.2-1.7 3.5-3.6 6.9-5.7 10.3 3.6 5.6 6.9 11.3 10.1 17.2 4.9 6.6 10 13.1 15.2 19.5 9.7 12 19.9 23.4 28.8 36.1 8.6 12.1 17.1 24.9 28.8 34.3.7.6 1.5 1 2.3 1.3.3.9.8 1.7 1.6 2.5 1.8 1.8 3.5 3.4 5.4 4.6-5.5 18.1-16.3 34.3-25.7 50.6z"/></svg>